<svg width="546" height="546" xmlns="http://www.w3.org/2000/svg" xmlns:xlink="http://www.w3.org/1999/xlink" xml:space="preserve" overflow="hidden">
    <defs>
        <clipPath id="clip0">
            <rect x="0" y="0" width="546" height="546"/>
        </clipPath>
    </defs>
    <g clip-path="url(#clip0)">
        <path d="M68.25 443.625C69.5404 436.747 80.3964 414.128 83.9262 406.301 83.9262 406.301 113.786 339.117 113.786 339.117 113.786 339.117 161.177 232.477 161.177 232.477 161.177 232.477 186.472 177.023 186.472 177.023 201.86 149.446 222.41 125.729 248.473 107.728 248.473 107.728 306.059 70.7134 306.059 70.7134 306.059 70.7134 394.57 13.9166 394.57 13.9166 399.188 10.9946 412.689 1.97285 416.965 0.693164 427.224-2.38875 439.669 1.97285 442.932 12.7969 443.764 15.5482 443.657 19.4832 443.625 22.3945 443.497 32.9946 433.206 54.3121 428.909 65.0508 428.909 65.0508 392.011 156.762 392.011 156.762 387.404 168.29 376.58 191.185 376.441 202.617 376.281 217.003 381.027 223.977 386.786 236.742 386.786 236.742 400.521 267.668 400.521 267.668 400.521 267.668 453.073 386.039 453.073 386.039 453.073 386.039 469.667 423.363 469.667 423.363 472.354 429.527 476.545 437.184 477.75 443.625 477.75 443.625 255.938 443.625 255.938 443.625 255.938 443.625 264.821 416.965 264.821 416.965 265.972 413.531 267.38 407.527 270.249 405.32 272.222 403.795 279.825 401.534 282.598 400.617 282.598 400.617 308.191 392.075 308.191 392.075 315.891 389.356 323.036 384.429 323.036 375.375 323.036 369.456 319.41 364.466 314.59 361.309 310.228 358.472 287.013 351.253 280.465 349.067 277.82 348.192 271.443 346.433 269.63 344.62 267.721 342.722 265.812 335.566 264.799 332.719 264.799 332.719 253.367 300.727 253.367 300.727 249.646 293.987 242.394 289.391 234.609 291.822 231.005 292.942 227.88 295.576 225.705 298.615 222.41 303.19 215.563 325.872 213.281 332.719 212.087 336.302 210.455 343.159 207.501 345.43 205.528 346.955 197.925 349.216 195.152 350.133 195.152 350.133 168.492 359.059 168.492 359.059 160.803 361.896 154.128 367.505 154.757 376.441 155.354 384.951 162.243 389.494 169.559 392.075 169.559 392.075 195.152 400.617 195.152 400.617 197.925 401.534 205.528 403.795 207.501 405.32 210.37 407.527 211.778 413.531 212.929 416.965 212.929 416.965 221.812 443.625 221.812 443.625 221.812 443.625 68.25 443.625 68.25 443.625ZM287.972 146.578C278.833 150.481 280.454 163.256 275.303 170.486 271.08 176.405 257.686 176.906 251.917 181.278 247.065 184.958 247.79 191.591 252.856 194.715 254.263 195.579 256.481 196.357 258.07 196.923 261.963 198.288 271.027 200.708 273.779 203.161 280.539 209.197 279.302 232.103 292.153 228.797 300.513 226.654 300.311 209.826 305.536 203.972 309.492 199.535 321.735 198.128 327.269 194.715 330.831 192.518 332.505 188.615 330.863 184.595 327.813 177.151 310.719 177.215 305.536 171.403 298.85 163.907 301.921 145.181 287.972 146.578ZM25.5938 478.305C25.5938 478.305 71.4492 477.75 71.4492 477.75 71.4492 477.75 158.895 477.75 158.895 477.75 158.895 477.75 428.695 477.75 428.695 477.75 428.695 477.75 511.875 477.75 511.875 477.75 534.451 477.782 546.256 492.168 546 514.008 545.755 533.8 530.985 545.968 511.875 546 511.875 546 118.371 546 118.371 546 118.371 546 34.125 546 34.125 546 11.5492 545.968-0.255937 531.582 0 509.742 0.202617 493.458 10.2055 482.442 25.5938 478.305Z" fill="#099295"/>
    </g>
</svg>
