<svg width="512" height="512" xmlns="http://www.w3.org/2000/svg" xmlns:xlink="http://www.w3.org/1999/xlink" xml:space="preserve" overflow="hidden">
<defs>
<clipPath id="clip0"><rect x="0" y="0" width="512" height="512"/>
</clipPath>
</defs>
<g clip-path="url(#clip0)">
<path d="M272 24C272 10.7 261.3 0 248 0 234.7 0 224 10.7 224 24L224 29.2C224 63.2 238.4 95.6 263.7 118.4L280.1 133.2C295.3 146.9 303.9 166.3 303.9 186.7L303.9 200C303.9 213.3 314.6 224 327.9 224 341.2 224 351.9 213.3 351.9 200L351.9 186.8C351.9 152.8 337.5 120.4 312.2 97.6L295.8 82.8C280.7 69.1 272 49.7 272 29.2L272 24ZM0 320 0 336 0 448C0 483.3 28.7 512 64 512L448 512C483.3 512 512 483.3 512 448L512 320C512 284.7 483.3 256 448 256L277.3 256C263.5 256 250 251.5 238.9 243.2L153.6 179.2C137 166.7 116.8 160 96 160 43 160 0 203 0 256L0 320ZM128 336 128 432C128 440.8 120.8 448 112 448 103.2 448 96 440.8 96 432L96 336C96 327.2 103.2 320 112 320 120.8 320 128 327.2 128 336ZM208 320C216.8 320 224 327.2 224 336L224 432C224 440.8 216.8 448 208 448 199.2 448 192 440.8 192 432L192 336C192 327.2 199.2 320 208 320ZM320 336 320 432C320 440.8 312.8 448 304 448 295.2 448 288 440.8 288 432L288 336C288 327.2 295.2 320 304 320 312.8 320 320 327.2 320 336ZM400 320C408.8 320 416 327.2 416 336L416 432C416 440.8 408.8 448 400 448 391.2 448 384 440.8 384 432L384 336C384 327.2 391.2 320 400 320ZM360 0C346.7 0 336 10.7 336 24L336 29.2C336 63.2 350.4 95.6 375.7 118.4L392.1 133.2C407.3 146.9 415.9 166.3 415.9 186.7L415.9 200C415.9 213.3 426.6 224 439.9 224 453.2 224 463.9 213.3 463.9 200L463.9 186.8C463.9 152.8 449.5 120.4 424.2 97.6L407.8 82.8C392.7 69.1 384 49.7 384 29.2L384 24C384 10.7 373.3 0 360 0ZM64 128C99.3462 128 128 99.3462 128 64 128 28.6538 99.3462-1.42109e-14 64-1.42109e-14 28.6538-1.42109e-14-1.42109e-14 28.6538 0 64 0 99.3462 28.6538 128 64 128Z" 
fill="#8EA9DB"/>
</g>
</svg>